<?xml version="1.0" encoding="utf-8"?>
<!-- Generator: Adobe Illustrator 16.0.4, SVG Export Plug-In . SVG Version: 6.00 Build 0)  -->
<!DOCTYPE svg PUBLIC "-//W3C//DTD SVG 1.1//EN" "http://www.w3.org/Graphics/SVG/1.1/DTD/svg11.dtd">
<svg version="1.1" id="Layer_1" xmlns="http://www.w3.org/2000/svg" xmlns:xlink="http://www.w3.org/1999/xlink" x="0px" y="0px"
	 width="191.477px" height="72.273px" viewBox="0 0 191.477 72.273" enable-background="new 0 0 191.477 72.273"
	 xml:space="preserve">
<g>
	<path fill="#FFFFFF" d="M43.042,0.031c-0.537-0.099-1.088,0.046-1.507,0.395c-0.418,0.351-0.661,0.865-0.661,1.411v48.389
		c-2.247-1.101-5.24-1.175-8.082,0.032c-4.607,1.964-7.068,6.55-5.496,10.244c1.573,3.695,6.583,5.103,11.19,3.142
		c3.573-1.521,5.846-4.617,5.957-7.654c0.062-0.187,0.103-0.377,0.103-0.58V4.115c14.396,3.66,24.627,16.67,24.627,31.736
		c0,18.059-14.691,32.75-32.75,32.75c-18.06,0-32.751-14.691-32.751-32.75c0-15.797,11.256-29.342,26.764-32.203
		c0.996-0.187,1.655-1.144,1.473-2.141c-0.186-0.997-1.146-1.653-2.14-1.472C12.519,3.221,0.001,18.283,0.001,35.85
		c0,20.083,16.339,36.423,36.422,36.423s36.422-16.34,36.422-36.423C72.844,18.266,60.311,3.201,43.042,0.031z"/>
</g>
<g>
	<g>
		<g>
			<g>
				<path fill="#FFFFFF" d="M84.924,61.032V47.596h-2.755V46.08h7.177v1.517H86.59v13.436H84.924z"/>
				<path fill="#FFFFFF" d="M90.586,49.69c0-2.285,1.131-3.759,3.417-3.759c2.308,0,3.438,1.474,3.438,3.759v7.731
					c0,2.266-1.131,3.761-3.438,3.761c-2.286,0-3.417-1.495-3.417-3.761V49.69z M92.23,57.509c0,1.367,0.577,2.157,1.773,2.157
					c1.218,0,1.772-0.79,1.772-2.157v-7.901c0-1.348-0.556-2.159-1.772-2.159c-1.196,0-1.773,0.812-1.773,2.159V57.509z"/>
				<path fill="#FFFFFF" d="M100.71,61.032h-1.495V46.081h2.115l3.46,10.81v-10.81h1.475v14.951h-1.729l-3.824-12.089L100.71,61.032
					L100.71,61.032z"/>
				<path fill="#FFFFFF" d="M109.875,58.021l-0.577,3.011h-1.537l2.861-14.951h2.414l2.862,14.951h-1.667l-0.576-3.011H109.875z
					 M110.089,56.59h3.332l-1.688-8.628L110.089,56.59z"/>
				<path fill="#FFFFFF" d="M117.416,61.032V46.081h1.666v13.437h4.271v1.516L117.416,61.032L117.416,61.032z"/>
				<path fill="#FFFFFF" d="M130.018,54.304v6.728h-1.666V46.081h1.666v6.729h3.675v-6.729h1.665v14.951h-1.665v-6.728H130.018z"/>
				<path fill="#FFFFFF" d="M138.969,58.021l-0.576,3.011h-1.538l2.862-14.951h2.414l2.861,14.951h-1.665l-0.577-3.011H138.969z
					 M139.182,56.59h3.332l-1.687-8.628L139.182,56.59z"/>
				<path fill="#FFFFFF" d="M149.843,46.081c2.349,0,3.332,1.196,3.332,3.417v1.218c0,1.646-0.577,2.672-1.858,3.076
					c1.368,0.406,1.882,1.518,1.882,3.118v2.329c0,0.661,0.02,1.28,0.297,1.793h-1.688c-0.189-0.426-0.277-0.811-0.277-1.815v-2.349
					c0-1.688-0.789-2.222-2.177-2.222h-1.177v6.386h-1.665V46.081H149.843z M149.415,53.13c1.323,0,2.113-0.427,2.113-2.051v-1.431
					c0-1.346-0.489-2.052-1.729-2.052h-1.623v5.532L149.415,53.13L149.415,53.13z"/>
				<path fill="#FFFFFF" d="M160.65,61.01h-1.6l-2.48-11.896v11.918h-1.45V46.081h2.328l2.454,11.94l2.374-11.94h2.325v14.951
					h-1.578V49.008L160.65,61.01z"/>
				<path fill="#FFFFFF" d="M166.398,49.69c0-2.285,1.132-3.759,3.417-3.759c2.309,0,3.44,1.474,3.44,3.759v7.731
					c0,2.266-1.133,3.761-3.44,3.761c-2.285,0-3.417-1.495-3.417-3.761V49.69z M168.043,57.509c0,1.367,0.577,2.157,1.771,2.157
					c1.219,0,1.772-0.79,1.772-2.157v-7.901c0-1.348-0.555-2.159-1.772-2.159c-1.194,0-1.771,0.812-1.771,2.159V57.509z"/>
				<path fill="#FFFFFF" d="M176.524,61.032h-1.495V46.081h2.114l3.459,10.81v-10.81h1.476v14.951h-1.729l-3.823-12.089
					L176.524,61.032L176.524,61.032z"/>
				<path fill="#FFFFFF" d="M186.648,55.672l-3.161-9.591h1.73l2.329,7.349l2.35-7.349h1.58l-3.183,9.591v5.36h-1.646
					L186.648,55.672L186.648,55.672z"/>
			</g>
		</g>
		<g>
			<g>
				<path fill="#FFFFFF" d="M93.3,38.118h-2.871l-4.441-21.323v21.363h-2.604v-26.8h4.173l4.402,21.4l4.25-21.4h4.174v26.8h-2.834
					V16.602L93.3,38.118z"/>
				<path fill="#FFFFFF" d="M106.086,17.827c0-4.095,2.027-6.736,6.125-6.736c4.135,0,6.163,2.643,6.163,6.736v13.86
					c0,4.058-2.028,6.735-6.163,6.735c-4.098,0-6.125-2.679-6.125-6.735V17.827z M109.033,31.84c0,2.451,1.032,3.867,3.178,3.867
					c2.182,0,3.178-1.416,3.178-3.867V17.676c0-2.411-0.996-3.865-3.178-3.865c-2.146,0-3.178,1.454-3.178,3.865V31.84z"/>
				<path fill="#FFFFFF" d="M130.357,11.358c4.172,0,6.086,2.525,6.086,6.661v13.514c0,4.097-1.914,6.625-6.086,6.625h-6.278v-26.8
					H130.357z M130.318,35.438c2.146,0,3.179-1.34,3.179-3.79V17.867c0-2.451-1.033-3.79-3.217-3.79h-3.216v21.361H130.318z"/>
				<path fill="#FFFFFF" d="M151.641,23.227v2.679h-6.546v9.532h8.039v2.72h-11.026v-26.8h11.026v2.719h-8.039v9.15H151.641z"/>
				<path fill="#FFFFFF" d="M164.733,11.358c4.212,0,5.973,2.144,5.973,6.126v2.182c0,2.948-1.032,4.786-3.329,5.515
					c2.449,0.727,3.368,2.718,3.368,5.589v4.174c0,1.186,0.038,2.296,0.534,3.216h-3.022c-0.345-0.767-0.497-1.456-0.497-3.255
					v-4.211c0-3.024-1.417-3.981-3.905-3.981h-2.104v11.447h-2.986v-26.8L164.733,11.358L164.733,11.358z M163.969,23.992
					c2.373,0,3.79-0.765,3.79-3.675v-2.565c0-2.411-0.881-3.675-3.101-3.675h-2.91v9.915H163.969z"/>
				<path fill="#FFFFFF" d="M179.358,38.158h-2.68v-26.8h3.79l6.201,19.372V11.358h2.643v26.8h-3.103l-6.853-21.67L179.358,38.158
					L179.358,38.158z"/>
			</g>
		</g>
	</g>
</g>
</svg>
